<svg width="17" height="16" viewBox="0 0 17 16" fill="none" xmlns="http://www.w3.org/2000/svg">
<path d="M16.6323 7.08147L8.5922 0.11614C8.46683 0.00751051 8.28068 0.00751051 8.1553 0.11614L0.115188 7.08147C0.00989462 7.1727 -0.0276237 7.31969 0.0210487 7.45021C0.0697212 7.58072 0.194346 7.66727 0.333658 7.66727H2.35494V14.7011C2.35494 14.8853 2.50429 15.0347 2.68855 15.0347H14.059C14.2432 15.0347 14.3926 14.8853 14.3926 14.7011V7.66727H16.4139C16.5532 7.66727 16.6778 7.58072 16.7265 7.45021C16.7751 7.31969 16.7376 7.17266 16.6323 7.08147ZM14.059 7.00002C13.8747 7.00002 13.7253 7.14941 13.7253 7.33363V14.3674H3.02212V7.33363C3.02212 7.14941 2.87277 7.00002 2.68851 7.00002H1.22821L8.37374 0.809723L15.5192 7.00002H14.059Z" fill="white"/>
</svg>
